<?xml version="1.0" encoding="UTF-8"?>
<svg xmlns="http://www.w3.org/2000/svg" xmlns:xlink="http://www.w3.org/1999/xlink" width="21px" height="21px" viewBox="0 0 21 21" version="1.1">
<defs>
<linearGradient id="linear0" gradientUnits="userSpaceOnUse" x1="0" y1="0" x2="1" y2="0" gradientTransform="matrix(4.003716,-4.198777,-4.198777,-4.003716,3.769703,12.70035)">
<stop offset="0" style="stop-color:rgb(0%,47.058824%,100%);stop-opacity:1;"/>
<stop offset="1" style="stop-color:rgb(0%,87.058824%,100%);stop-opacity:1;"/>
</linearGradient>
</defs>
<g id="surface1">
<path style=" stroke:none;fill-rule:nonzero;fill:rgb(100%,100%,100%);fill-opacity:1;" d="M 10.933594 11.914062 C 10.792969 11.914062 10.667969 11.894531 10.546875 11.851562 C 10.429688 11.808594 10.332031 11.742188 10.25 11.667969 C 10.164062 11.582031 10.097656 11.484375 10.042969 11.359375 C 10 11.230469 9.96875 11.089844 9.96875 10.917969 L 9.96875 10.84375 C 9.96875 10.683594 9.992188 10.554688 10.042969 10.425781 C 10.097656 10.308594 10.164062 10.210938 10.25 10.125 C 10.332031 10.039062 10.441406 9.984375 10.546875 9.941406 C 10.667969 9.898438 10.785156 9.878906 10.914062 9.878906 C 11.050781 9.878906 11.171875 9.898438 11.277344 9.933594 C 11.382812 9.964844 11.46875 10.015625 11.546875 10.082031 C 11.621094 10.144531 11.675781 10.222656 11.714844 10.308594 C 11.757812 10.394531 11.78125 10.488281 11.800781 10.585938 L 11.308594 10.585938 C 11.277344 10.5 11.234375 10.425781 11.179688 10.371094 C 11.128906 10.316406 11.042969 10.296875 10.921875 10.296875 C 10.859375 10.296875 10.804688 10.308594 10.742188 10.328125 C 10.6875 10.351562 10.632812 10.382812 10.589844 10.425781 C 10.546875 10.46875 10.515625 10.53125 10.496094 10.597656 C 10.472656 10.660156 10.460938 10.746094 10.460938 10.84375 L 10.460938 10.917969 C 10.460938 11.023438 10.472656 11.109375 10.496094 11.1875 C 10.515625 11.261719 10.546875 11.324219 10.589844 11.367188 C 10.632812 11.410156 10.675781 11.453125 10.742188 11.476562 C 10.792969 11.496094 10.859375 11.507812 10.921875 11.507812 C 11.019531 11.507812 11.105469 11.484375 11.171875 11.433594 C 11.234375 11.378906 11.289062 11.316406 11.308594 11.21875 L 11.800781 11.21875 C 11.792969 11.324219 11.757812 11.421875 11.714844 11.507812 C 11.675781 11.59375 11.609375 11.667969 11.535156 11.734375 C 11.460938 11.796875 11.375 11.839844 11.265625 11.871094 C 11.179688 11.90625 11.0625 11.914062 10.933594 11.914062 "/>
<path style=" stroke:none;fill-rule:nonzero;fill:rgb(100%,100%,100%);fill-opacity:1;" d="M 12.808594 11.894531 C 12.691406 11.894531 12.597656 11.882812 12.519531 11.863281 C 12.433594 11.839844 12.371094 11.808594 12.316406 11.753906 C 12.261719 11.699219 12.21875 11.636719 12.199219 11.539062 C 12.179688 11.453125 12.167969 11.347656 12.167969 11.207031 L 12.167969 9.300781 L 12.648438 9.300781 L 12.648438 11.152344 C 12.648438 11.21875 12.648438 11.273438 12.660156 11.304688 C 12.671875 11.347656 12.683594 11.378906 12.703125 11.402344 C 12.722656 11.421875 12.746094 11.445312 12.789062 11.453125 C 12.820312 11.464844 12.863281 11.476562 12.917969 11.476562 L 12.992188 11.476562 C 13.015625 11.476562 13.035156 11.476562 13.046875 11.464844 L 13.046875 11.871094 C 13.035156 11.871094 13.015625 11.871094 12.992188 11.882812 C 12.972656 11.882812 12.949219 11.882812 12.9375 11.894531 Z M 12.808594 11.894531 "/>
<path style=" stroke:none;fill-rule:nonzero;fill:rgb(100%,100%,100%);fill-opacity:1;" d="M 13.648438 9.71875 C 13.5625 9.71875 13.484375 9.695312 13.433594 9.640625 C 13.378906 9.589844 13.355469 9.523438 13.355469 9.449219 C 13.355469 9.375 13.378906 9.308594 13.433594 9.257812 C 13.484375 9.203125 13.5625 9.179688 13.648438 9.179688 C 13.730469 9.179688 13.808594 9.203125 13.859375 9.257812 C 13.914062 9.308594 13.9375 9.375 13.9375 9.449219 C 13.9375 9.523438 13.914062 9.589844 13.859375 9.640625 C 13.808594 9.695312 13.730469 9.71875 13.648438 9.71875 M 13.398438 9.921875 L 13.882812 9.921875 L 13.882812 11.871094 L 13.398438 11.871094 Z M 13.398438 9.921875 "/>
<path style=" stroke:none;fill-rule:nonzero;fill:rgb(100%,100%,100%);fill-opacity:1;" d="M 15.222656 11.914062 C 15.082031 11.914062 14.953125 11.894531 14.835938 11.851562 C 14.71875 11.808594 14.621094 11.742188 14.535156 11.667969 C 14.449219 11.582031 14.386719 11.484375 14.332031 11.359375 C 14.289062 11.230469 14.257812 11.089844 14.257812 10.917969 L 14.257812 10.84375 C 14.257812 10.683594 14.277344 10.554688 14.332031 10.425781 C 14.386719 10.308594 14.449219 10.210938 14.535156 10.125 C 14.621094 10.039062 14.730469 9.984375 14.835938 9.941406 C 14.953125 9.898438 15.074219 9.878906 15.199219 9.878906 C 15.339844 9.878906 15.457031 9.898438 15.566406 9.933594 C 15.671875 9.964844 15.757812 10.015625 15.832031 10.082031 C 15.910156 10.144531 15.960938 10.222656 16.003906 10.308594 C 16.046875 10.394531 16.070312 10.488281 16.089844 10.585938 L 15.597656 10.585938 C 15.566406 10.5 15.523438 10.425781 15.46875 10.371094 C 15.414062 10.316406 15.328125 10.296875 15.210938 10.296875 C 15.148438 10.296875 15.09375 10.308594 15.03125 10.328125 C 14.976562 10.351562 14.921875 10.382812 14.878906 10.425781 C 14.835938 10.46875 14.804688 10.53125 14.78125 10.597656 C 14.761719 10.660156 14.75 10.746094 14.75 10.84375 L 14.75 10.917969 C 14.75 11.023438 14.761719 11.109375 14.78125 11.1875 C 14.804688 11.261719 14.835938 11.324219 14.878906 11.367188 C 14.921875 11.410156 14.964844 11.453125 15.03125 11.476562 C 15.082031 11.496094 15.148438 11.507812 15.210938 11.507812 C 15.308594 11.507812 15.394531 11.484375 15.457031 11.433594 C 15.523438 11.378906 15.578125 11.316406 15.597656 11.21875 L 16.089844 11.21875 C 16.078125 11.324219 16.046875 11.421875 16.003906 11.507812 C 15.960938 11.59375 15.898438 11.667969 15.824219 11.734375 C 15.746094 11.796875 15.660156 11.839844 15.554688 11.871094 C 15.46875 11.90625 15.351562 11.914062 15.222656 11.914062 "/>
<path style=" stroke:none;fill-rule:nonzero;fill:rgb(100%,100%,100%);fill-opacity:1;" d="M 16.433594 11.871094 L 16.433594 9.300781 L 16.925781 9.300781 L 16.925781 10.726562 L 17.632812 9.921875 L 18.203125 9.921875 L 17.472656 10.746094 L 18.277344 11.871094 L 17.699219 11.871094 L 17.140625 11.078125 L 16.925781 11.316406 L 16.925781 11.871094 Z M 16.433594 11.871094 "/>
<path style=" stroke:none;fill-rule:nonzero;fill:url(#linear0);" d="M 3.792969 8.429688 C 3.074219 9.136719 2.722656 9.8125 2.722656 10.488281 L 2.722656 10.5 C 2.722656 11.175781 3.074219 11.863281 3.792969 12.570312 C 4.5 13.277344 5.1875 13.628906 5.863281 13.640625 L 5.875 13.640625 C 6.550781 13.640625 7.234375 13.289062 7.941406 12.570312 C 9.359375 11.152344 9.367188 9.855469 7.941406 8.421875 C 7.226562 7.710938 6.539062 7.359375 5.863281 7.359375 C 5.175781 7.359375 4.5 7.710938 3.792969 8.429688 M 4.726562 11.625 C 3.945312 10.84375 3.953125 10.136719 4.726562 9.363281 C 5.5 8.589844 6.207031 8.582031 6.988281 9.363281 C 7.773438 10.144531 7.761719 10.855469 6.988281 11.625 C 6.601562 12.011719 6.226562 12.203125 5.863281 12.203125 C 5.855469 12.203125 5.84375 12.203125 5.832031 12.203125 C 5.46875 12.203125 5.113281 12.011719 4.726562 11.625 "/>
</g>
</svg>
